<svg width="580" height="400" xmlns="http://www.w3.org/2000/svg">
 <!-- Created with Method Draw - http://github.com/duopixel/Method-Draw/ -->
 <g>
  <title>background</title>
  <rect fill="#00bfbf" id="canvas_background" height="402" width="582" y="-1" x="-1"/>
  <g display="none" overflow="visible" y="0" x="0" height="100%" width="100%" id="canvasGrid">
   <rect fill="url(#gridpattern)" stroke-width="0" y="0" x="0" height="100%" width="100%"/>
  </g>
 </g>
 <g>
  <title>Layer 1</title>
  <ellipse ry="36.5" rx="41.5" id="svg_1" cy="80.699997" cx="81" stroke-width="1.5" stroke="#000" fill="#fff"/>
  <path id="svg_5" d="m67.577271,102.676853c1.474318,-5.033465 3.492254,-9.296288 5.406394,-11.420814c2.050693,-2.27609 1.140871,-3.263385 -0.974586,-1.057577c-0.889999,0.928003 -1.144284,0.254171 -1.144284,-3.032258c0,-7.841158 3.898219,-12.693039 13.277542,-16.525742c7.936298,-3.243051 13.787377,-6.890071 16.21336,-10.105921l1.976876,-2.620534l0,4.559471c0,5.637854 -1.677498,14.155286 -3.534337,17.945459c-1.969774,4.020711 -8.721415,11.44235 -12.034554,13.22881c-2.968279,1.600521 -9.307573,2.071706 -12.695628,0.94364c-1.688407,-0.562154 -2.224254,-0.13264 -3.099099,2.484119c-0.581748,1.740074 -1.057726,4.215601 -1.057726,5.501151c0,1.459455 -0.561374,2.337357 -1.494613,2.337357c-1.108408,0 -1.325291,-0.578068 -0.839343,-2.237159l-0.000002,0z" stroke-width="1.5" stroke="#000" fill="#fff"/>
  <text font-weight="bold" stroke-dasharray="2,2" xml:space="preserve" text-anchor="start" font-family="Euphoria, sans-serif" font-size="24" id="svg_6" y="183.199997" x="314.5" fill-opacity="null" stroke-opacity="null" stroke-width="0" stroke="#000" fill="#000000">羊Young</text>
 </g>
</svg>